<?xml version="1.0" standalone="no"?>
<!DOCTYPE svg PUBLIC "-//W3C//DTD SVG 20010904//EN"
 "http://www.w3.org/TR/2001/REC-SVG-20010904/DTD/svg10.dtd">
<svg version="1.0" xmlns="http://www.w3.org/2000/svg"
 width="301.000000pt" height="301.000000pt" viewBox="0 0 301.000000 301.000000"
 preserveAspectRatio="xMidYMid meet">
<metadata>
Created by potrace 1.14, written by Peter Selinger 2001-2017
</metadata>
<g transform="translate(0.000000,301.000000) scale(0.100000,-0.100000)"
fill="#000000" stroke="none">
<path d="M1355 2980 c-45 -22 -75 -29 -118 -30 l-58 0 3 -37 3 -38 53 -1 c39
-1 69 6 114 28 79 37 104 35 100 -9 -4 -41 27 -62 64 -43 18 10 22 18 17 41
-8 43 17 46 95 13 47 -20 84 -29 122 -29 l55 0 3 37 3 37 -54 0 c-40 -1 -73 7
-125 30 -39 17 -75 31 -80 31 -6 0 -21 -16 -33 -37 l-22 -36 -24 29 c-12 16
-23 32 -23 37 0 14 -36 6 -95 -23z"/>
<path d="M960 2903 c-40 -14 -161 -80 -215 -116 -267 -180 -460 -370 -438
-431 7 -21 147 -177 260 -292 47 -47 148 -108 214 -127 77 -23 164 6 279 92
148 111 212 202 212 304 0 112 -25 191 -101 322 -61 104 -106 203 -96 213 3 3
-2 14 -12 24 -16 18 -69 23 -103 11z m-27 -130 c13 -8 -4 -24 -122 -112 -106
-79 -236 -163 -319 -205 l-33 -17 15 28 c30 57 128 139 329 277 66 45 92 50
130 29z m121 -181 c36 -65 72 -135 81 -155 77 -185 -52 -381 -239 -364 -65 6
-118 22 -185 57 -51 25 -82 55 -143 135 -25 34 -53 67 -62 74 -14 12 -2 23
101 92 86 57 330 236 379 278 1 0 31 -52 68 -117z"/>
<path d="M1943 2888 c-11 -13 -37 -54 -56 -93 -19 -38 -58 -108 -86 -155 -62
-102 -91 -190 -96 -290 -2 -57 1 -83 15 -110 40 -76 169 -182 296 -242 59 -28
80 -33 144 -33 68 0 82 4 150 40 75 40 125 83 235 206 33 37 81 81 108 99 26
17 48 36 48 41 1 5 2 15 3 22 4 25 -35 86 -91 142 -117 117 -386 303 -516 356
-102 42 -128 45 -154 17z m243 -143 c43 -19 237 -154 327 -227 27 -22 45 -82
28 -93 -10 -5 -215 136 -292 201 -134 115 -159 138 -159 146 0 11 29 3 96 -27z
m153 -273 c68 -48 132 -94 142 -102 19 -14 14 -21 -98 -136 -127 -130 -175
-161 -257 -168 -95 -8 -195 44 -235 123 -40 77 -47 214 -16 302 9 24 43 84 77
134 l61 92 101 -79 c56 -43 157 -118 225 -166z"/>
<path d="M1453 2671 c-55 -40 -99 -99 -85 -113 6 -6 61 -11 132 -13 97 -1 123
1 127 13 5 12 -111 142 -128 142 -3 0 -24 -13 -46 -29z"/>
<path d="M1450 2280 c-25 -25 -26 -52 -2 -73 39 -35 106 -7 99 40 -8 52 -60
70 -97 33z"/>
<path d="M2747 2238 c-25 -9 -27 -13 -21 -42 10 -46 27 -75 83 -140 42 -47 50
-61 40 -72 -7 -8 -18 -13 -25 -10 -15 6 -44 -19 -44 -37 0 -7 7 -23 16 -35 14
-21 18 -22 37 -9 12 7 30 11 40 9 17 -3 18 -12 11 -93 -5 -72 -3 -98 11 -134
9 -25 18 -45 19 -45 14 0 66 24 66 30 0 4 -6 23 -14 42 -13 31 -14 75 -3 176
3 36 -20 62 -55 62 -27 0 -32 20 -11 43 36 39 35 45 -22 108 -35 40 -60 78
-68 107 -15 51 -20 55 -60 40z"/>
<path d="M205 2220 c10 -16 -33 -102 -74 -145 -66 -71 -66 -69 -31 -108 33
-38 32 -40 -15 -51 -50 -12 -52 -18 -42 -101 8 -61 6 -84 -8 -126 -18 -57 -12
-69 33 -69 39 0 55 57 48 166 -5 78 -3 93 10 98 9 3 25 -1 37 -9 19 -13 23
-13 39 2 23 21 24 62 1 69 -61 19 -62 37 -5 98 60 64 99 154 74 170 -18 11
-73 16 -67 6z"/>
<path d="M2475 1950 c-6 -10 9 -73 46 -186 26 -81 43 -77 93 26 46 92 45 94
-47 140 -64 32 -82 36 -92 20z"/>
<path d="M434 1906 c-90 -49 -91 -52 -47 -142 24 -50 57 -83 70 -71 6 6 83
225 83 236 0 23 -34 15 -106 -23z"/>
<path d="M2190 1792 c-21 -7 -30 -23 -30 -54 0 -33 24 -58 55 -58 60 0 76 84
20 105 -16 7 -37 10 -45 7z"/>
<path d="M746 1754 c-17 -16 -21 -51 -8 -70 12 -19 50 -34 67 -28 56 22 40
114 -20 114 -13 0 -31 -7 -39 -16z"/>
<path d="M2399 1570 c-36 -9 -78 -24 -93 -33 -61 -40 -109 -137 -147 -292 -37
-156 -22 -248 53 -330 69 -76 127 -116 243 -165 99 -43 197 -98 209 -119 4 -6
19 -11 33 -11 67 0 149 152 234 435 52 170 66 241 68 346 2 87 2 88 -26 103
-16 8 -49 17 -73 21 -84 12 -105 16 -190 37 -108 26 -225 30 -311 8z m317
-152 l113 -31 -21 -51 c-30 -74 -132 -379 -153 -459 -10 -37 -21 -66 -24 -65
-3 2 -33 16 -66 32 -237 112 -276 139 -316 218 -75 147 3 306 176 361 108 34
155 34 291 -5z m192 -192 c-4 -28 -33 -128 -65 -224 -51 -155 -61 -177 -88
-194 -48 -29 -54 -24 -40 30 27 100 89 281 127 367 22 50 45 101 51 115 10 25
11 25 16 -10 4 -19 3 -57 -1 -84z"/>
<path d="M275 1531 c-81 -19 -140 -27 -182 -25 -57 3 -64 1 -78 -20 -37 -56
-7 -237 80 -490 68 -202 163 -367 214 -374 13 -2 80 23 154 58 73 34 159 74
193 90 71 33 174 124 210 186 43 73 35 166 -28 331 -63 161 -135 236 -250 258
-105 19 -184 16 -313 -14z m313 -106 c109 -20 203 -136 197 -244 -7 -121 -124
-273 -242 -317 -27 -9 -75 -27 -108 -40 -32 -13 -60 -22 -62 -21 -1 2 -20 66
-42 143 -23 76 -63 204 -90 284 -28 79 -48 146 -46 149 3 2 15 5 27 7 13 1 66
12 118 23 137 29 168 31 248 16z m-399 -259 c27 -83 52 -169 56 -191 4 -22 14
-65 21 -95 20 -79 19 -88 -10 -61 -36 34 -67 105 -126 290 -52 163 -56 195
-27 229 18 22 31 -5 86 -172z"/>
<path d="M1922 934 c-38 -26 -24 -84 25 -99 27 -7 63 25 63 56 0 54 -42 75
-88 43z"/>
<path d="M1052 929 c-29 -11 -46 -53 -32 -80 15 -27 55 -34 85 -15 55 36 9
118 -53 95z"/>
<path d="M1420 790 c-159 -27 -224 -78 -284 -227 -27 -64 -32 -86 -40 -168 -3
-27 -8 -73 -11 -101 -3 -27 -12 -75 -21 -105 -28 -99 -28 -104 1 -128 24 -18
47 -27 130 -48 37 -10 479 -12 545 -2 83 11 179 37 208 55 27 17 28 46 8 177
-8 50 -17 127 -20 169 -7 86 -24 145 -67 228 -49 95 -84 124 -173 145 -59 14
-205 16 -276 5z m186 -91 c48 -23 111 -89 152 -158 34 -57 49 -127 50 -234 1
-49 4 -91 6 -95 2 -4 -135 -7 -305 -7 -270 0 -308 2 -304 15 3 8 11 72 19 141
9 70 25 152 37 185 57 151 209 219 345 153z m104 -572 c14 -3 39 -5 55 -6 28
-2 29 -2 11 -16 -42 -32 -220 -45 -504 -35 -7 0 -24 12 -38 27 -19 20 -22 29
-12 35 12 9 433 4 488 -5z"/>
<path d="M2159 667 c-122 -84 -133 -93 -126 -109 5 -15 83 -31 156 -32 33 -1
36 2 48 44 17 55 21 126 8 139 -7 7 -37 -9 -86 -42z"/>
<path d="M773 694 c-3 -8 1 -52 8 -97 l15 -82 59 -1 c64 -1 112 9 129 27 12
12 -30 53 -130 125 -69 49 -72 50 -81 28z"/>
<path d="M2534 534 c-44 -30 -55 -43 -83 -100 -37 -73 -62 -84 -87 -39 -17 30
-52 27 -69 -5 -12 -24 -12 -29 6 -47 32 -32 15 -50 -59 -63 -65 -11 -136 -43
-161 -73 -9 -12 -7 -21 13 -43 l24 -29 24 21 c35 33 80 52 134 59 73 10 90 24
87 74 -1 22 0 41 3 41 2 0 21 -7 41 -15 44 -19 52 -13 95 67 17 33 48 72 67
86 20 14 40 29 44 33 9 7 -20 59 -33 59 -4 0 -25 -12 -46 -26z"/>
<path d="M426 528 c-23 -32 -20 -39 27 -73 26 -19 54 -53 73 -88 42 -79 45
-82 91 -66 21 6 40 10 43 8 2 -2 5 -22 5 -44 0 -38 2 -41 40 -52 22 -6 57 -14
77 -18 21 -3 58 -21 82 -40 l45 -34 22 31 23 31 -34 29 c-37 30 -64 41 -152
58 -62 12 -78 31 -48 57 26 22 25 48 -1 66 -23 17 -59 11 -59 -9 0 -7 -9 -18
-19 -24 -22 -11 -32 0 -85 92 -23 41 -86 98 -108 98 -4 0 -14 -10 -22 -22z"/>
</g>
</svg>
